<?xml version="1.0" encoding="utf-8"?>
<!-- Generator: Adobe Illustrator 14.0.0, SVG Export Plug-In . SVG Version: 6.00 Build 43363)  -->
<!DOCTYPE svg PUBLIC "-//W3C//DTD SVG 1.1//EN" "http://www.w3.org/Graphics/SVG/1.1/DTD/svg11.dtd">
<svg version="1.1" id="Layer_1" xmlns="http://www.w3.org/2000/svg" xmlns:xlink="http://www.w3.org/1999/xlink" x="0px" y="0px"
	 width="512px" height="512px" viewBox="0 0 512 512" enable-background="new 0 0 512 512" xml:space="preserve">
<g>
	<g>
		<path fill="#3D3B47" d="M270.723,18.756c-8.098-4.675-21.348-4.675-29.445,0L57.902,124.627
			c-8.098,4.675-14.723,16.15-14.723,25.5v211.744c0,9.35,6.625,20.825,14.723,25.5l183.375,105.873
			c8.098,4.675,21.348,4.675,29.445,0l183.375-105.873c8.098-4.675,14.723-16.15,14.723-25.5V150.127
			c0-9.35-6.625-20.825-14.723-25.5L270.723,18.756z"/>
	</g>
	<g>
		<g>
			<path fill="#EFF3F3" d="M255.987,239.576c0.366,0,0.738,0.012,1.11,0.036c5.456,0.363,10.365,3.416,13.133,8.16
				c1.641,2.833,2.394,6.062,2.18,9.335c-0.581,8.588-7.677,15.313-16.396,15.313c-0.365,0-0.733-0.013-1.104-0.036
				c-5.476-0.355-10.39-3.402-13.14-8.15c-1.644-2.832-2.396-6.061-2.18-9.332c0.586-8.572,7.77-15.304,16.352-15.327
				C255.958,239.576,255.973,239.576,255.987,239.576 M255.987,238.576L255.987,238.576h-0.047
				c-9.105,0.024-16.725,7.166-17.347,16.258c-0.229,3.476,0.569,6.898,2.313,9.902c2.917,5.036,8.129,8.27,13.94,8.646
				c0.388,0.025,0.781,0.038,1.168,0.038c9.137,0,16.776-7.137,17.394-16.246c0.227-3.477-0.572-6.9-2.313-9.904
				c-2.938-5.037-8.146-8.272-13.932-8.656C256.775,238.588,256.38,238.576,255.987,238.576L255.987,238.576z"/>
		</g>
	</g>
	<polygon fill="#A1A1A4" points="260.15,276.949 260.303,276.979 260.15,276.982 	"/>
	<path id="path4368" fill="#EFF3F3" d="M256.385,250.259c3.175,0.217,5.571,2.958,5.357,6.134c-0.215,3.164-2.954,5.561-6.125,5.348
		c-3.167-0.211-5.571-2.951-5.362-6.119C250.469,252.451,253.217,250.05,256.385,250.259z"/>
	<path fill="#EFF3F3" d="M256.09,279.193c0,0,0,0-0.004,0c-0.535,0-1.078-0.016-1.619-0.053c-7.731-0.502-14.668-4.805-18.551-11.51
		c-2.321-4-3.389-8.561-3.08-13.186c0.373-5.44,2.641-10.348,6.115-14.113l-0.112-0.195L88.598,354.625l172.602-75.877l-0.082-0.145
		C259.494,278.973,257.816,279.188,256.09,279.193z"/>
	<path fill="#8CBB3F" d="M250.38,233.431l0.043,0.07c2.269-0.567,4.663-0.807,7.122-0.644c7.705,0.51,14.637,4.815,18.539,11.513
		c2.32,4.007,3.388,8.566,3.081,13.187c-0.378,5.617-2.782,10.656-6.44,14.465l0.012,0.021l151.739-111.922L250.38,233.431z"/>
</g>
</svg>
